<svg xmlns="http://www.w3.org/2000/svg" width="276" height="200" viewBox="0 0 276 200">
  <g id="Group_107" data-name="Group 107" transform="translate(-132.141 -219.24)">
    <path id="Path_207" data-name="Path 207" d="M218.017,436.087c-5.731.127-11.241.326-17.139-.526,6.721-.969,5.4-5.829,5.423-9.951.043-6.983.015-13.966.011-20.95,0-5.714-.005-5.714-5.052-7.966.34-1.234,1.392-.814,2.129-.818,5.726-.033,11.454-.086,17.179.036,5.548.119,9.987,3.006,11.356,7.134,1.794,5.41-.459,10.312-6.169,12.687-2.344.975-2.5,1.806-1.009,3.717,2.449,3.129,4.713,6.406,6.982,9.67a11.537,11.537,0,0,0,7.384,5.245c.639.124,1.366.25,1.569,1.073-4.317,2.18-10.838.831-13.535-2.839q-4.738-6.447-9.407-12.945c-.895-1.246-1.849-2.37-3.554-1.942-1.886.474-1.34,2.131-1.371,3.39-.072,2.908.087,5.825-.048,8.728s.947,4.656,3.961,4.984c.461.05.975.1,1.29,1.273m-5.224-29.16c0,1.648.1,3.3-.023,4.943-.2,2.634,1.06,3.562,3.491,3.162a17.23,17.23,0,0,0,3.644-.92c4.17-1.685,5.723-4.656,5.006-9.321-.523-3.407-3.807-6.086-7.728-6.3-3.355-.186-4.358.74-4.389,4.077-.013,1.454,0,2.908,0,4.362" transform="translate(-15.3 -39.392)" fill="#22473e"/>
    <path id="Path_208" data-name="Path 208" d="M421.219,401.835c0,1.744.022,3.488-.007,5.232-.01.572-.047,1.3-.728,1.433-.945.186-1.069-.676-1.193-1.3a12.681,12.681,0,0,0-4.4-7.642,8.782,8.782,0,0,0-10.036-.905c-3.244,2.06-3.7,5.545-1.058,8.368,2.576,2.754,6.087,4.092,9.217,6.006,1.653,1.01,3.383,1.9,4.993,2.969,5.048,3.356,6.8,7.479,5.454,12.584-1.178,4.454-5.873,7.988-11.136,8.424a22.666,22.666,0,0,1-9.675-1.614c-1.441-.522-2.746-.792-3.94.631-1.009,1.2-1.825.583-1.859-.681-.1-3.677-.044-7.359,0-11.038.005-.559.176-1.236.917-1.271.756-.036.893.661,1.035,1.2a18.482,18.482,0,0,0,1.914,4.849c2.535,4.255,8.906,6.265,13.279,4.19,4.69-2.226,5.339-7.439,1.144-10.5-2.65-1.935-5.6-3.467-8.39-5.208-1.644-1.025-3.3-2.036-4.867-3.177-4.806-3.51-6.3-7.691-4.593-12.587,1.55-4.44,6.508-7.594,11.8-7.3a22.018,22.018,0,0,1,5.1,1.052c1.917.582,3.626,1.723,5.51-.394.913-1.026,1.468.282,1.505,1.169.077,1.838.023,3.681.026,5.521" transform="translate(-58.864 -39.092)" fill="#22473e"/>
    <path id="Path_209" data-name="Path 209" d="M476.705,401.929c0,1.647.02,3.295-.01,4.941-.012.665.009,1.542-.832,1.642-.881.1-1-.786-1.127-1.426a12.5,12.5,0,0,0-4.456-7.609,8.785,8.785,0,0,0-9.8-.934c-3.419,2.059-3.913,5.633-1.146,8.537,2.6,2.727,6.1,4.07,9.237,5.98,1.654,1.008,3.379,1.906,4.987,2.979,5,3.336,6.745,7.535,5.342,12.627-1.222,4.434-5.959,7.935-11.215,8.329a22.12,22.12,0,0,1-9.119-1.466c-1.574-.558-3.094-1.174-4.465.552-.821,1.035-1.723.557-1.755-.571-.11-3.772-.047-7.55-.022-11.325a1.1,1.1,0,0,1,.725-1.154c.748-.177.969.45,1.162,1,.411,1.187.708,2.425,1.228,3.563a10.838,10.838,0,0,0,12.187,6.244c2.574-.534,4.8-1.812,5.485-4.589a5.9,5.9,0,0,0-2.812-6.76c-4.4-2.831-8.891-5.512-13.265-8.378a9.886,9.886,0,0,1-4.86-7.858c-.448-7.212,6.067-12.831,13.63-11.685a25.779,25.779,0,0,1,5.031,1.392c1.472.545,2.654.8,3.93-.54s1.843-.272,1.9.984c.089,1.837.022,3.681.022,5.522h.009" transform="translate(-71.23 -39.082)" fill="#22473e"/>
    <path id="Path_210" data-name="Path 210" d="M158.619,435.935c1.192-2.147,4.007-1.555,3.732-3.839a23,23,0,0,0-3.393-8.866c-.408-.693-1.385-.6-2.16-.6-3.489-.012-6.979.027-10.467-.022a3.023,3.023,0,0,0-3.17,2.024c-.51,1.256-1.071,2.491-1.58,3.747-1.683,4.149-1.644,4.227,2.365,6.211.222.11.348.417,1,1.242a75.821,75.821,0,0,1-12.1-.027c-1-.091-.854-1.123-.073-1.392,3.98-1.372,4.833-5.1,6.24-8.294,4.249-9.661,8.328-19.4,12.485-29.1.372-.868.586-2.061,1.739-2.1,1.4-.05,1.478,1.368,1.86,2.276,3.985,9.46,7.855,18.968,11.909,28.4,1.484,3.452,2.186,7.628,6.7,8.864a.624.624,0,0,1,.458.893,1.282,1.282,0,0,1-.9.565c-4.7.036-9.4.025-14.64.025m-6.571-30.121-.759-.049c-1.793,4.129-3.6,8.252-5.37,12.388-.6,1.411.04,1.954,1.447,1.942,2.8-.022,5.6-.009,8.4-.013,1.458,0,1.91-.644,1.337-2.021-1.7-4.077-3.37-8.164-5.052-12.247" transform="translate(0 -39.192)" fill="#22473e"/>
    <path id="Path_211" data-name="Path 211" d="M341.116,396.914a15.355,15.355,0,0,1-1.529.683c-2.333.761-2.824,2.224-1.554,4.239,2.583,4.1,5.233,8.156,7.84,12.239.807,1.264,1.55,1.3,2.37.012,2.388-3.763,4.867-7.472,7.167-11.288,1.269-2.105,1.278-4.093-1.476-5.185-.435-.172-.985-.321-1.036-.9a.67.67,0,0,1,.725-.722c4.189-.016,8.378-.009,12.606.3-8.54,4.82-11.024,14.089-16.4,21.087a5.986,5.986,0,0,0-1.08,3.846c.016,2.229,0,4.459,0,6.688,0,5.6,0,5.6,4.991,7.438-1.491,1.073-12.839,1.371-16.46.43.024-.177,0-.484.079-.517,4.882-1.921,4.555-1.945,4.979-7.269a21.225,21.225,0,0,0-4.623-15.361c-2.54-3.293-4.681-6.9-6.959-10.386-1.3-1.985-2.74-3.76-5.088-4.566-.46-.158-.962-.457-.888-1a1.07,1.07,0,0,1,.8-.664c5.164-.04,10.327-.029,15.492-.029l.054.917" transform="translate(-42.876 -39.433)" fill="#22473e"/>
    <path id="Path_212" data-name="Path 212" d="M290.557,435.884H274.495l-.735-.714c6.853-.608,5.734-5.346,5.761-9.417.051-7.756-.086-15.514.067-23.268.056-2.839-.984-3.618-3.717-3.662-4.213-.069-7.577.666-8.461,5.5-.086.471-.265,1.006-.861,1.017-.783.015-.924-.635-.928-1.21-.014-2.131-.024-4.264.07-6.393.065-1.5,1.154-1.863,2.449-1.863q14.407,0,28.813-.014a2.376,2.376,0,0,1,2.7,2.337A28.37,28.37,0,0,1,300,403.99c-.028.583-.113,1.262-.806,1.381-.713.123-.906-.532-1.175-1.056-2.745-5.341-4.322-6.13-10.318-5.415-1.409.169-2.135.75-2.132,2.181q.03,14.4.058,28.792c.008,3.287,2.056,4.763,5.142,5.3-.071.239-.141.476-.211.715" transform="translate(-29.708 -39.403)" fill="#22473e"/>
    <path id="Path_213" data-name="Path 213" d="M253.909,336.065a8.141,8.141,0,0,1-7.724-7.91c.048-3.917,3.9-7.73,7.738-7.668,4.125.067,8.06,4.1,7.927,8.125-.124,3.763-4.091,7.485-7.941,7.454" transform="translate(-25.384 -22.588)" fill="#22473e"/>
    <path id="Path_214" data-name="Path 214" d="M247.295,315.56a6.75,6.75,0,0,1-6.923-7.016,7.156,7.156,0,0,1,6.877-6.9,7.343,7.343,0,0,1,6.91,6.936,7.422,7.422,0,0,1-6.864,6.982" transform="translate(-24.09 -18.384)" fill="#22473e"/>
    <path id="Path_215" data-name="Path 215" d="M252.416,288.356c.054,3.584-2.3,5.949-5.978,6.014-3.8.067-6.242-2.283-6.282-6.04a6.139,6.139,0,0,1,5.974-6.224,6.292,6.292,0,0,1,6.286,6.249" transform="translate(-24.042 -14.025)" fill="#22473e"/>
    <path id="Path_216" data-name="Path 216" d="M251.509,262.572a5.481,5.481,0,0,1,5.606,5.757,5.421,5.421,0,0,1-5.659,5.364,5.834,5.834,0,0,1-5.758-5.716,6.11,6.11,0,0,1,5.811-5.4" transform="translate(-25.275 -9.667)" fill="#22473e"/>
    <path id="Path_217" data-name="Path 217" d="M267.875,249.17a5.211,5.211,0,0,1-10.422-.075,5.5,5.5,0,0,1,5.269-5.18,5.409,5.409,0,0,1,5.153,5.255" transform="translate(-27.892 -5.505)" fill="#22473e"/>
    <path id="Path_218" data-name="Path 218" d="M284.219,234.562c0,2.275-2.622,4.811-5,4.829a5.283,5.283,0,0,1-5.054-4.713,5.136,5.136,0,0,1,4.943-5.064,5.275,5.275,0,0,1,5.109,4.947" transform="translate(-31.612 -2.315)" fill="#22473e"/>
    <path id="Path_219" data-name="Path 219" d="M298.109,230.707a4.607,4.607,0,0,1-.33-9.208,4.653,4.653,0,0,1,4.717,4.789,4.338,4.338,0,0,1-4.387,4.419" transform="translate(-35.892 -0.504)" fill="#22473e"/>
    <path id="Path_220" data-name="Path 220" d="M315.871,223.041a4.282,4.282,0,0,1,4.046-3.8,4.329,4.329,0,0,1,3.975,4.215,4.016,4.016,0,0,1-4.246,3.843,3.918,3.918,0,0,1-3.776-4.259" transform="translate(-40.893)" fill="#22473e"/>
    <path id="Path_221" data-name="Path 221" d="M340.225,222.543a3.914,3.914,0,0,1,3.916,3.89,3.66,3.66,0,0,1-3.594,3.849c-2.334.15-3.577-1.256-3.743-3.536-.174-2.387,1.294-4.141,3.421-4.2" transform="translate(-45.552 -0.737)" fill="#22473e"/>
    <path id="Path_222" data-name="Path 222" d="M356.28,235.495c.177-1.983,1.126-3.4,3.168-3.47,2.077-.069,3.6,1.015,3.581,3.261a3.189,3.189,0,0,1-3.412,3.5c-2.062,0-3.06-1.339-3.337-3.287" transform="translate(-49.89 -2.852)" fill="#22473e"/>
    <path id="Path_223" data-name="Path 223" d="M372.749,250.609c.179-1.952.988-3.386,2.908-3.487a3.024,3.024,0,0,1,3.358,3.167,2.93,2.93,0,0,1-2.852,3.338c-2.036.124-3.1-1.18-3.414-3.018" transform="translate(-53.556 -6.219)" fill="#22473e"/>
    <path id="Path_224" data-name="Path 224" d="M387.091,272.267c-1.542-.271-2.869-.975-2.658-2.767.178-1.519,1.13-2.826,2.883-2.645a2.642,2.642,0,0,1,2.541,2.979c-.1,1.611-1.159,2.345-2.765,2.433" transform="translate(-56.151 -10.619)" fill="#22473e"/>
    <path id="Path_225" data-name="Path 225" d="M394.672,288.828c-.064,1.2-.607,2.1-1.836,2.187a2,2,0,0,1-2.324-1.994,1.909,1.909,0,0,1,1.8-2.195,2.117,2.117,0,0,1,2.359,2" transform="translate(-57.508 -15.076)" fill="#22473e"/>
    <path id="Path_226" data-name="Path 226" d="M393.893,310.985a1.807,1.807,0,0,1-1.84,1.839,1.771,1.771,0,1,1-.151-3.539,1.928,1.928,0,0,1,1.991,1.7" transform="translate(-57.435 -20.089)" fill="#22473e"/>
    <path id="Path_227" data-name="Path 227" d="M386.335,330.249c-.24,1.119-.857,1.651-1.842,1.547a1.62,1.62,0,0,1-1.576-1.708c.018-1.065.78-1.475,1.756-1.374a1.794,1.794,0,0,1,1.661,1.534" transform="translate(-55.819 -24.42)" fill="#22473e"/>
    <path id="Path_228" data-name="Path 228" d="M372.505,347.135a1.148,1.148,0,0,1-1.175,1.294,1.2,1.2,0,0,1-1.3-1.2,1.076,1.076,0,0,1,1.149-1.283,1.263,1.263,0,0,1,1.329,1.189" transform="translate(-52.948 -28.267)"/>
    <path id="Path_229" data-name="Path 229" d="M267.692,338.157c5.269.012,8.228,3.02,8.2,8.336a8.26,8.26,0,0,1-8.412,8.474,8.55,8.55,0,0,1-8.459-8.633c-.157-3.531,3.205-8.742,8.67-8.178" transform="translate(-28.241 -26.52)" fill="#22473e"/>
    <path id="Path_230" data-name="Path 230" d="M350.852,267.6c-2.55.064-4.749-1.754-4.831-3.994a4.711,4.711,0,0,1,4.485-4.73,4.366,4.366,0,1,1,.346,8.724" transform="translate(-47.606 -8.841)" fill="#22473e"/>
    <path id="Path_231" data-name="Path 231" d="M363.312,275.207a3.876,3.876,0,0,1-7.745.228,4.224,4.224,0,0,1,3.781-4.32,3.992,3.992,0,0,1,3.964,4.092" transform="translate(-49.73 -11.573)" fill="#22473e"/>
    <path id="Path_232" data-name="Path 232" d="M364.071,292.34a3.931,3.931,0,0,1-3.787-3.948,3.714,3.714,0,0,1,3.771-3.643,3.667,3.667,0,0,1,3.9,3.745,3.88,3.88,0,0,1-3.882,3.846" transform="translate(-50.779 -14.613)" fill="#22473e"/>
    <path id="Path_233" data-name="Path 233" d="M363.87,297.795c2.134.055,3.536,1.123,3.565,3.31a3.271,3.271,0,0,1-3.36,3.6,3.855,3.855,0,0,1-3.7-3.721c.177-2.02,1.4-3.093,3.494-3.19" transform="translate(-50.8 -17.525)" fill="#22473e"/>
    <path id="Path_234" data-name="Path 234" d="M360.55,310.551c1.967.147,3.385,1.081,3.456,3.116a3.248,3.248,0,0,1-3.165,3.466,3.111,3.111,0,0,1-3.4-3.169c-.154-2,1.077-3.162,3.11-3.413" transform="translate(-50.145 -20.371)" fill="#22473e"/>
    <path id="Path_235" data-name="Path 235" d="M358.232,324.787a3.019,3.019,0,0,1-3.075,3.124,2.958,2.958,0,0,1-3.251-3.237c0-2.036,1.277-2.889,3.184-2.888a2.8,2.8,0,0,1,3.142,3" transform="translate(-48.916 -22.878)" fill="#22473e"/>
    <path id="Path_236" data-name="Path 236" d="M344.546,336.508c-1.776-.2-3.1-1.079-2.98-3.081a2.9,2.9,0,0,1,3.166-3.027,2.944,2.944,0,0,1,2.881,3.32c-.045,1.792-1.113,2.791-3.068,2.788" transform="translate(-46.613 -24.798)" fill="#22473e"/>
    <path id="Path_237" data-name="Path 237" d="M329.347,339.665c-.051-2.113.834-3.329,2.675-3.4a3.01,3.01,0,0,1,.248,6.011,2.555,2.555,0,0,1-2.923-2.611" transform="translate(-43.895 -26.107)" fill="#22473e"/>
    <path id="Path_238" data-name="Path 238" d="M322.512,340.213c-.075,1.867-.962,2.917-2.662,2.885-1.837-.035-2.737-1.3-2.793-3.021a2.267,2.267,0,0,1,2.506-2.5,2.637,2.637,0,0,1,2.948,2.638" transform="translate(-41.159 -26.4)" fill="#22473e"/>
    <path id="Path_239" data-name="Path 239" d="M310.322,338.064a2.723,2.723,0,0,1-3.062,2.394,2.149,2.149,0,0,1-2.2-2.472c.075-1.466.731-2.646,2.447-2.57a2.655,2.655,0,0,1,2.817,2.648" transform="translate(-38.487 -25.918)" fill="#22473e"/>
    <path id="Path_240" data-name="Path 240" d="M295.774,335.4c-1.621-.033-2.321-.8-2.349-2.18-.027-1.347.57-2.295,2.012-2.29a2.152,2.152,0,0,1,2.419,2.3,2.216,2.216,0,0,1-2.083,2.175" transform="translate(-35.899 -24.916)" fill="#22473e"/>
    <path id="Path_241" data-name="Path 241" d="M285.892,321.869c1.182.183,2.246.706,2.118,2.142a2.233,2.233,0,0,1-2.3,2.154c-1.392-.019-1.986-1.084-1.955-2.376.03-1.263.813-1.879,2.142-1.921" transform="translate(-33.745 -22.896)" fill="#22473e"/>
    <path id="Path_242" data-name="Path 242" d="M278.191,310.278a1.926,1.926,0,0,1,2,2.043c.079,1.093-.381,1.959-1.574,2.043a1.966,1.966,0,0,1-2.22-1.844c-.178-1.278.613-1.953,1.8-2.243" transform="translate(-32.103 -20.31)" fill="#22473e"/>
    <path id="Path_243" data-name="Path 243" d="M277.92,300.464c-.213,1.11-.717,1.938-1.9,1.833-1.045-.093-1.89-.679-1.73-1.879a1.82,1.82,0,0,1,2.055-1.619c1.053.033,1.488.739,1.57,1.666" transform="translate(-31.637 -17.749)" fill="#22473e"/>
    <path id="Path_244" data-name="Path 244" d="M276.678,290.673c-.851-.178-1.516-.608-1.494-1.519a1.479,1.479,0,0,1,1.745-1.512,1.433,1.433,0,0,1,1.486,1.485c-.02,1.053-.756,1.485-1.736,1.546" transform="translate(-31.839 -15.259)" fill="#22473e"/>
    <path id="Path_245" data-name="Path 245" d="M281.192,275.429a1.064,1.064,0,0,1-.953,1.2,1.183,1.183,0,0,1-1.447-1.027,1.072,1.072,0,0,1,1.07-1.36c.793-.06,1.192.448,1.329,1.187" transform="translate(-32.637 -12.27)" fill="#22473e"/>
    <path id="Path_246" data-name="Path 246" d="M200.407,474.609v-6.674h2.3a5.592,5.592,0,0,1,1.189.1,2.254,2.254,0,0,1,.979.478,2.719,2.719,0,0,1,.791,1.141,4.466,4.466,0,0,1,.262,1.586,4.639,4.639,0,0,1-.178,1.347,3.246,3.246,0,0,1-.456.972,2.428,2.428,0,0,1-.608.606,2.474,2.474,0,0,1-.8.334,4.539,4.539,0,0,1-1.073.114Zm.884-.788h1.426a3.477,3.477,0,0,0,1.036-.123,1.489,1.489,0,0,0,.6-.346,2.1,2.1,0,0,0,.489-.844,4.117,4.117,0,0,0,.176-1.287,3.1,3.1,0,0,0-.344-1.609,1.733,1.733,0,0,0-.836-.754,3.463,3.463,0,0,0-1.143-.136h-1.4Z" transform="translate(-15.195 -55.483)" fill="#22473e"/>
    <path id="Path_247" data-name="Path 247" d="M218.1,474.608v-6.674h4.829v.788h-3.945v2.044h3.694v.782h-3.694v2.272h4.1v.788Z" transform="translate(-19.132 -55.482)" fill="#22473e"/>
    <path id="Path_248" data-name="Path 248" d="M234.69,472.432l.833-.073a1.838,1.838,0,0,0,.276.822,1.5,1.5,0,0,0,.672.519,2.545,2.545,0,0,0,1.025.2,2.457,2.457,0,0,0,.893-.151,1.236,1.236,0,0,0,.576-.412.957.957,0,0,0,.189-.571.868.868,0,0,0-.182-.549,1.351,1.351,0,0,0-.6-.394,11.6,11.6,0,0,0-1.189-.326,6.092,6.092,0,0,1-1.289-.416,1.81,1.81,0,0,1-.713-.622,1.523,1.523,0,0,1-.235-.831,1.7,1.7,0,0,1,.287-.945,1.783,1.783,0,0,1,.838-.667,3.188,3.188,0,0,1,1.226-.228,3.35,3.35,0,0,1,1.309.239,1.893,1.893,0,0,1,.872.7,2.017,2.017,0,0,1,.328,1.052l-.847.064a1.368,1.368,0,0,0-.462-.956,1.8,1.8,0,0,0-1.165-.323,1.866,1.866,0,0,0-1.168.294.88.88,0,0,0-.367.708.758.758,0,0,0,.26.592,3.525,3.525,0,0,0,1.333.475,8.827,8.827,0,0,1,1.478.426,2.027,2.027,0,0,1,.861.681,1.654,1.654,0,0,1,.278.949,1.812,1.812,0,0,1-.306,1,2,2,0,0,1-.877.733,3.051,3.051,0,0,1-1.287.262,3.838,3.838,0,0,1-1.519-.264,2.125,2.125,0,0,1-.961-.794,2.253,2.253,0,0,1-.367-1.2" transform="translate(-22.826 -55.45)" fill="#22473e"/>
    <rect id="Rectangle_156" data-name="Rectangle 156" width="0.884" height="6.674" transform="translate(225.534 412.452)" fill="#22473e"/>
    <path id="Path_249" data-name="Path 249" d="M267.476,471.958v-.783l2.829,0v2.477a5.015,5.015,0,0,1-1.344.781,4,4,0,0,1-1.421.262,3.8,3.8,0,0,1-1.788-.421,2.786,2.786,0,0,1-1.214-1.218,3.826,3.826,0,0,1-.41-1.78,4.126,4.126,0,0,1,.408-1.819,2.709,2.709,0,0,1,1.173-1.254,3.681,3.681,0,0,1,1.762-.409,3.486,3.486,0,0,1,1.31.235,2.17,2.17,0,0,1,.917.653,2.9,2.9,0,0,1,.506,1.093l-.8.218a2.467,2.467,0,0,0-.373-.8,1.534,1.534,0,0,0-.638-.467,2.348,2.348,0,0,0-.92-.176,2.714,2.714,0,0,0-1.048.185,1.956,1.956,0,0,0-.713.485,2.328,2.328,0,0,0-.421.66,3.507,3.507,0,0,0-.255,1.343,3.253,3.253,0,0,0,.308,1.493,1.966,1.966,0,0,0,.895.892,2.774,2.774,0,0,0,1.249.291,2.959,2.959,0,0,0,1.12-.221,2.893,2.893,0,0,0,.829-.471v-1.243Z" transform="translate(-29.378 -55.45)" fill="#22473e"/>
    <path id="Path_250" data-name="Path 250" d="M282.737,474.608v-6.674h.906l3.508,5.24v-5.24H288v6.674h-.906l-3.508-5.244v5.244Z" transform="translate(-33.52 -55.482)" fill="#22473e"/>
    <path id="Path_251" data-name="Path 251" d="M300.4,474.608v-6.674h.906l3.508,5.24v-5.24h.847v6.674h-.906l-3.508-5.244v5.244Z" transform="translate(-37.452 -55.482)" fill="#22473e"/>
    <path id="Path_252" data-name="Path 252" d="M330.028,472.432l.833-.073a1.839,1.839,0,0,0,.276.822,1.5,1.5,0,0,0,.672.519,2.545,2.545,0,0,0,1.025.2,2.457,2.457,0,0,0,.893-.151,1.236,1.236,0,0,0,.576-.412.957.957,0,0,0,.189-.571.868.868,0,0,0-.182-.549,1.351,1.351,0,0,0-.6-.394,11.6,11.6,0,0,0-1.189-.326,6.094,6.094,0,0,1-1.289-.416,1.81,1.81,0,0,1-.713-.622,1.523,1.523,0,0,1-.235-.831,1.7,1.7,0,0,1,.287-.945,1.782,1.782,0,0,1,.838-.667,3.188,3.188,0,0,1,1.226-.228,3.35,3.35,0,0,1,1.309.239,1.892,1.892,0,0,1,.872.7,2.016,2.016,0,0,1,.328,1.052l-.847.064a1.369,1.369,0,0,0-.462-.956,1.8,1.8,0,0,0-1.165-.323,1.866,1.866,0,0,0-1.168.294.88.88,0,0,0-.367.708.758.758,0,0,0,.26.592,3.526,3.526,0,0,0,1.333.475,8.826,8.826,0,0,1,1.478.426,2.027,2.027,0,0,1,.861.681,1.654,1.654,0,0,1,.278.949,1.813,1.813,0,0,1-.305,1,2,2,0,0,1-.877.733,3.051,3.051,0,0,1-1.287.262,3.837,3.837,0,0,1-1.519-.264,2.126,2.126,0,0,1-.961-.794,2.253,2.253,0,0,1-.367-1.2" transform="translate(-44.046 -55.45)" fill="#22473e"/>
    <path id="Path_253" data-name="Path 253" d="M348.975,474.608v-5.886h-2.2v-.788h5.293v.788h-2.209v5.886Z" transform="translate(-47.774 -55.482)" fill="#22473e"/>
    <path id="Path_254" data-name="Path 254" d="M368.135,467.935h.884v3.856a4.569,4.569,0,0,1-.228,1.6,1.956,1.956,0,0,1-.823.963,2.917,2.917,0,0,1-1.56.371,3.2,3.2,0,0,1-1.535-.323,1.843,1.843,0,0,1-.852-.935,4.449,4.449,0,0,1-.255-1.673v-3.856h.884v3.851a3.743,3.743,0,0,0,.162,1.281,1.228,1.228,0,0,0,.555.635,1.933,1.933,0,0,0,.964.223,1.846,1.846,0,0,0,1.389-.441,2.546,2.546,0,0,0,.414-1.7Z" transform="translate(-51.556 -55.483)" fill="#22473e"/>
    <path id="Path_255" data-name="Path 255" d="M381.415,474.609v-6.674h2.3a5.593,5.593,0,0,1,1.189.1,2.254,2.254,0,0,1,.979.478,2.72,2.72,0,0,1,.791,1.141,4.466,4.466,0,0,1,.262,1.586,4.64,4.64,0,0,1-.178,1.347,3.246,3.246,0,0,1-.456.972,2.428,2.428,0,0,1-.608.606,2.473,2.473,0,0,1-.8.334,4.538,4.538,0,0,1-1.073.114Zm.884-.788h1.426a3.477,3.477,0,0,0,1.036-.123,1.488,1.488,0,0,0,.6-.346,2.1,2.1,0,0,0,.489-.844,4.117,4.117,0,0,0,.176-1.287,3.1,3.1,0,0,0-.344-1.609,1.734,1.734,0,0,0-.836-.754,3.462,3.462,0,0,0-1.143-.136h-1.4Z" transform="translate(-55.484 -55.483)" fill="#22473e"/>
    <rect id="Rectangle_157" data-name="Rectangle 157" width="0.884" height="6.674" transform="translate(339.814 412.452)" fill="#22473e"/>
    <path id="Path_256" data-name="Path 256" d="M411.069,471.323a3.623,3.623,0,0,1,.893-2.6,3.033,3.033,0,0,1,2.3-.94,3.2,3.2,0,0,1,1.668.441,2.882,2.882,0,0,1,1.132,1.231,4,4,0,0,1,.389,1.792,3.936,3.936,0,0,1-.41,1.816,2.8,2.8,0,0,1-1.162,1.213,3.312,3.312,0,0,1-1.621.412,3.161,3.161,0,0,1-1.685-.455,2.93,2.93,0,0,1-1.126-1.243,3.766,3.766,0,0,1-.383-1.666m.911.014a2.67,2.67,0,0,0,.649,1.9,2.265,2.265,0,0,0,3.271-.006,2.835,2.835,0,0,0,.645-1.99,3.419,3.419,0,0,0-.275-1.423,2.114,2.114,0,0,0-.807-.942,2.186,2.186,0,0,0-1.191-.335,2.264,2.264,0,0,0-1.615.644,2.877,2.877,0,0,0-.676,2.151" transform="translate(-62.085 -55.448)" fill="#22473e"/>
  </g>
</svg>
