<svg xmlns="http://www.w3.org/2000/svg" xml:space="preserve" viewBox="16 16 241 69"><g><path d="M86.33 34.7h4.52v25.92h-4.52V34.69M97.3 41.06h4.51v3.07c.32-.47.67-.91 1.06-1.33a6.65 6.65 0 0 1 2.98-1.87 7 7 0 0 1 2.05-.27c2.22 0 3.93.67 5.14 2.03 1.2 1.36 1.8 3.19 1.8 5.48v12.45h-4.51V49.53c0-1.52-.36-2.7-1.08-3.52a3.86 3.86 0 0 0-3.07-1.24c-1.3 0-2.35.42-3.16 1.27a4.95 4.95 0 0 0-1.21 3.56v11.02h-4.52V41.06M120.77 34.7H131c1.5 0 2.87.2 4.1.6 1.22.41 2.25 1 3.1 1.76.86.77 1.51 1.68 1.97 2.74a8.9 8.9 0 0 1 .68 3.56v.07c0 1.46-.27 2.74-.81 3.84a8.03 8.03 0 0 1-2.23 2.75 10 10 0 0 1-3.3 1.7c-1.27.37-2.61.56-4.05.56h-5.16v8.34h-4.52zm9.83 13.47c1.74 0 3.1-.43 4.1-1.3a4.2 4.2 0 0 0 1.51-3.34v-.08c0-1.54-.5-2.7-1.52-3.47a6.5 6.5 0 0 0-4.09-1.18h-5.31v9.37h5.31M145 33.58h4.5v10.55c.33-.47.68-.91 1.07-1.33a6.66 6.66 0 0 1 2.98-1.87 7 7 0 0 1 2.05-.27c2.22 0 3.93.67 5.14 2.03 1.2 1.36 1.8 3.19 1.8 5.48v12.45h-4.51V49.53c0-1.52-.36-2.7-1.08-3.52a3.86 3.86 0 0 0-3.07-1.24c-1.3 0-2.35.42-3.16 1.27-.8.85-1.21 2.04-1.21 3.56v11.02h-4.52V33.58M179.91 60.62V58.2a8.06 8.06 0 0 1-6.33 2.82 9 9 0 0 1-2.66-.4 6.56 6.56 0 0 1-2.2-1.14 5.72 5.72 0 0 1-1.53-1.9 5.71 5.71 0 0 1-.57-2.6v-.08c0-1.08.2-2.03.6-2.83.39-.8.94-1.47 1.64-2s1.54-.93 2.52-1.18c.97-.26 2.03-.4 3.17-.4 1.18 0 2.19.08 3.01.23.83.15 1.63.34 2.4.6v-.38c0-1.36-.42-2.4-1.25-3.11-.83-.72-2.02-1.07-3.57-1.07-1.11 0-2.1.1-2.97.33-.86.22-1.74.52-2.62.89l-1.23-3.6a16.46 16.46 0 0 1 7.44-1.63c2.92 0 5.08.73 6.49 2.17 1.4 1.45 2.1 3.48 2.1 6.1v11.59zm.12-8.19a13.13 13.13 0 0 0-4.48-.78c-1.41 0-2.51.28-3.3.82a2.56 2.56 0 0 0-1.19 2.22v.08c0 .93.37 1.65 1.1 2.14.72.5 1.62.74 2.68.74.74 0 1.43-.1 2.06-.3.63-.2 1.17-.47 1.65-.83a3.65 3.65 0 0 0 1.48-2.98v-1.1M189.7 41.06h4.51v4.4a8.6 8.6 0 0 1 2.63-3.55 6.3 6.3 0 0 1 4.3-1.22v4.74h-.26c-1 0-1.9.16-2.7.48-.82.32-1.53.8-2.12 1.45a6.51 6.51 0 0 0-1.37 2.42c-.32.98-.48 2.1-.48 3.4v7.44h-4.52V41.06M204.99 41.06h4.51v3c.33-.45.67-.87 1.04-1.28.37-.39.8-.75 1.27-1.08a6.14 6.14 0 0 1 3.64-1.04c1.4 0 2.6.31 3.56.95a6.3 6.3 0 0 1 2.23 2.52 9.73 9.73 0 0 1 2.8-2.52 7.44 7.44 0 0 1 3.85-.95c2.16 0 3.84.64 5.05 1.94 1.22 1.3 1.82 3.14 1.82 5.54v12.48h-4.52V49.53c0-1.55-.34-2.73-1.03-3.54a3.61 3.61 0 0 0-2.91-1.22c-1.23 0-2.23.41-3 1.24-.78.82-1.17 2.02-1.17 3.6v11h-4.52V49.5c0-1.52-.34-2.7-1.03-3.5a3.61 3.61 0 0 0-2.9-1.22c-1.26 0-2.27.43-3.03 1.3a5.22 5.22 0 0 0-1.15 3.57v10.98H205V41.06M252.13 60.62V58.2a8.05 8.05 0 0 1-6.33 2.82 9 9 0 0 1-2.67-.4 6.56 6.56 0 0 1-2.2-1.14 5.7 5.7 0 0 1-2.1-4.5v-.08c0-1.08.2-2.03.6-2.83.4-.8.94-1.47 1.65-2 .7-.53 1.54-.93 2.51-1.18.98-.26 2.04-.4 3.17-.4 1.19 0 2.2.08 3.02.23.83.15 1.62.34 2.39.6v-.38c0-1.36-.42-2.4-1.24-3.11-.83-.72-2.02-1.07-3.58-1.07-1.1 0-2.1.1-2.96.33-.86.22-1.74.52-2.63.89l-1.22-3.6a16.49 16.49 0 0 1 7.44-1.63c2.92 0 5.08.73 6.48 2.17 1.41 1.45 2.11 3.48 2.11 6.1v11.59zm.11-8.19a13.12 13.12 0 0 0-4.48-.78c-1.4 0-2.5.28-3.3.82a2.56 2.56 0 0 0-1.18 2.22v.08c0 .93.36 1.65 1.1 2.14.72.5 1.61.74 2.68.74.74 0 1.42-.1 2.05-.3.63-.2 1.18-.47 1.65-.83a3.65 3.65 0 0 0 1.48-2.98v-1.1" fill="#fff"/><path d="m43.34 63.25 4.76-2.75v-7.82l9.16-5.29-4.74-2.73-6.8 3.92-9.15-5.29v5.48l6.77 3.9zm-5.6 11.43 20.9-12.06 3.17-1.83-2.37-4.1-2.57 1.48-13.53 7.81-7.36 4.26-4.17 2.4-11.52-6.66v-13.3l6.8-3.93v-5.47l-11.54 6.66v18.78l16.26 9.39 5.94-3.43zm36.08-25.94-20.9-12.06-7.03-4.06-2.37 4.1L54.9 43.3l4.74 2.73 8.17 4.72 3.35 1.94v13.3l-11.52 6.66-6.8-3.93-4.74 2.74 11.54 6.66 16.26-9.4V49.95l-2.07-1.2zm-44.36-6.83V25.88l16.26-9.39 16.26 9.4v13.29l-4.73-2.74v-7.82l-11.53-6.65-11.52 6.65v31.9h-4.74V41.91" fill="#85cd2a"/><path d="M29.46 58.27h4.74v10.26L31.8 69.9l-2.35-1.36V58.27M38.95 28.61l7.84 4.53-2.37 4.1-7.85-4.53v-2.72l2.38-1.38M66.4 52.67l-9.08 5.24L59.7 62l9.1-5.25v-2.72l-2.39-1.37" fill="#85cd2a"/></g></svg>